<svg width="20" height="20" viewBox="0 0 20 20" fill="none" xmlns="http://www.w3.org/2000/svg">
<path d="M5.83366 11.167C5.48003 11.167 5.14035 11.3076 4.8903 11.5576C4.64045 11.8076 4.49967 12.1465 4.49967 12.5C4.49967 12.8535 4.64045 13.1924 4.8903 13.4424C5.14035 13.6924 5.48003 13.833 5.83366 13.833H6.66666C7.02029 13.833 7.359 13.6924 7.60905 13.4424C7.8591 13.1923 7.99967 12.8536 7.99967 12.5C7.99967 12.1464 7.8591 11.8077 7.60905 11.5576C7.359 11.3076 7.02029 11.167 6.66666 11.167H5.83366ZM13.3337 11.167C12.98 11.167 12.6403 11.3076 12.3903 11.5576C12.1405 11.8076 11.9997 12.1465 11.9997 12.5C11.9997 12.8535 12.1405 13.1924 12.3903 13.4424C12.6403 13.6924 12.98 13.833 13.3337 13.833H14.1667C14.5203 13.833 14.859 13.6924 15.109 13.4424C15.3591 13.1923 15.4997 12.8536 15.4997 12.5C15.4997 12.1464 15.3591 11.8077 15.109 11.5576C14.859 11.3076 14.5203 11.167 14.1667 11.167H13.3337ZM4.99967 3.66699C4.64617 3.66708 4.30726 3.80765 4.05729 4.05762C3.80734 4.30765 3.66666 4.64645 3.66666 5V9.66699H16.3337V5C16.3337 4.64653 16.1929 4.30764 15.943 4.05762C15.693 3.80757 15.3533 3.66699 14.9997 3.66699H13.5397L13.401 3.94336L11.9645 6.81543L11.9606 6.82227L11.9577 6.8291C11.939 6.8696 11.9126 6.90651 11.8796 6.93652C11.8465 6.96655 11.8074 6.98914 11.7653 7.00391C11.7233 7.01863 11.6789 7.02523 11.6344 7.02246C11.5901 7.01965 11.5463 7.00809 11.5065 6.98828C11.4667 6.96836 11.431 6.94009 11.402 6.90625C11.373 6.8723 11.351 6.8326 11.3376 6.79004C11.3241 6.7475 11.3187 6.70262 11.3229 6.6582C11.3271 6.61381 11.3408 6.5705 11.362 6.53125L11.3659 6.52441L11.3688 6.51758L12.4323 4.39062L12.7936 3.66699H9.37272L9.23405 3.94336L7.80143 6.80664C7.76001 6.88031 7.69269 6.93639 7.61198 6.96191C7.52944 6.98797 7.4394 6.98012 7.36198 6.94141C7.28475 6.90263 7.22553 6.83547 7.19694 6.75391C7.17542 6.69252 7.17289 6.62675 7.18815 6.56445L7.20866 6.50391L8.2653 4.39062L8.6276 3.66699H4.99967ZM2.99967 7.83301H2.49967C2.41138 7.83292 2.32676 7.79779 2.26432 7.73535C2.20191 7.67286 2.16666 7.58833 2.16666 7.5V5.83301C2.16675 5.74472 2.20188 5.66009 2.26432 5.59766C2.32676 5.53522 2.41138 5.50009 2.49967 5.5H2.99967V5C2.99967 4.46964 3.21064 3.96099 3.58561 3.58594C3.96061 3.21094 4.46936 3.00009 4.99967 3H14.9997C15.53 3 16.0387 3.21097 16.4137 3.58594C16.7888 3.96101 16.9997 4.46957 16.9997 5V5.5H17.4997C17.5881 5.5 17.6735 5.53514 17.736 5.59766C17.7983 5.66008 17.8336 5.7448 17.8337 5.83301V7.5C17.8337 7.58825 17.7983 7.67287 17.736 7.73535C17.6735 7.79786 17.5881 7.83301 17.4997 7.83301H16.9997V14.167C16.9996 14.3717 16.9458 14.5727 16.8434 14.75C16.741 14.9273 16.5939 15.0744 16.4167 15.1768L16.1667 15.3213V16.25C16.1667 16.4489 16.0876 16.6396 15.9469 16.7803C15.8063 16.9209 15.6156 17 15.4167 17C15.2178 17 15.027 16.9209 14.8864 16.7803C14.7457 16.6396 14.6667 16.4489 14.6667 16.25V15.333H5.33366V16.25C5.33366 16.4488 5.25448 16.6396 5.11393 16.7803C4.97335 16.9208 4.78245 16.9999 4.58366 17C4.38482 17 4.19402 16.9208 4.05338 16.7803C3.91273 16.6396 3.83366 16.4489 3.83366 16.25V15.3213L3.58366 15.1768C3.40631 15.0744 3.25832 14.9274 3.15592 14.75C3.05364 14.5728 2.99974 14.3716 2.99967 14.167V7.83301Z" fill="#0E0E12" stroke="#0E0E12"/>
</svg>
